<?xml version="1.0" standalone="no"?>
<!DOCTYPE svg PUBLIC "-//W3C//DTD SVG 20010904//EN"
 "http://www.w3.org/TR/2001/REC-SVG-20010904/DTD/svg10.dtd">
<svg version="1.0" xmlns="http://www.w3.org/2000/svg"
 width="508.000000pt" height="508.000000pt" viewBox="0 0 508.000000 508.000000"
 preserveAspectRatio="xMidYMid meet">
<metadata>
Created by potrace 1.11, written by Peter Selinger 2001-2013
</metadata>
<g transform="translate(0.000000,508.000000) scale(0.100000,-0.100000)"
fill="#000000" stroke="none">
<path d="M2280 4775 c-414 -53 -836 -232 -1146 -486 -424 -346 -691 -778 -808
-1304 -43 -197 -59 -516 -35 -720 90 -782 564 -1449 1274 -1796 324 -157 634
-228 1001 -229 519 0 980 150 1380 451 773 581 1097 1542 830 2464 -172 594
-608 1113 -1172 1393 -202 101 -413 171 -644 213 -149 27 -521 35 -680 14z
m655 -129 c459 -84 851 -286 1172 -603 186 -184 311 -356 420 -577 340 -686
285 -1516 -140 -2146 -121 -179 -295 -366 -464 -499 -211 -166 -494 -309 -758
-384 -205 -58 -353 -77 -593 -77 -300 1 -509 38 -772 137 -305 115 -558 281
-786 515 -123 127 -186 204 -267 328 -190 294 -292 577 -337 932 -17 131 -8
472 15 598 66 364 210 690 428 970 67 85 256 279 332 340 336 267 666 409
1120 479 97 15 525 6 630 -13z"/>
<path d="M2160 3375 c-142 -22 -224 -59 -397 -176 -39 -27 -74 -49 -77 -49 -3
0 -6 40 -6 89 0 76 -3 90 -17 93 -9 2 -142 2 -295 0 l-278 -3 2 -905 3 -905
280 0 c154 1 286 1 293 1 9 0 12 136 12 645 l0 645 62 31 c107 54 163 69 258
69 141 0 205 -33 247 -129 22 -49 26 -77 34 -241 5 -102 9 -374 8 -605 0 -291
3 -420 10 -419 6 1 137 2 291 3 l280 1 0 640 0 640 41 25 c22 15 75 40 116 56
70 29 83 30 182 27 124 -4 170 -22 214 -84 53 -76 57 -124 57 -741 0 -444 3
-563 13 -563 6 0 138 0 292 -1 l280 0 0 658 c0 599 -2 665 -18 738 -33 147
-90 258 -168 331 -106 99 -327 158 -491 133 -155 -24 -292 -89 -476 -226 -53
-40 -101 -73 -107 -73 -5 0 -21 19 -34 42 -78 136 -232 232 -414 257 -91 13
-87 13 -197 -4z"/>
</g>
</svg>
